<svg width="32" height="32" viewBox="0 0 32 32" fill="none" xmlns="http://www.w3.org/2000/svg">
<path fill-rule="evenodd" clip-rule="evenodd" d="M12.3202 7.53801L11.9051 14.5482C11.8921 14.7677 12.0938 14.9381 12.308 14.8887L14.8059 14.3122C15.0396 14.2583 15.2508 14.4642 15.2027 14.6992L14.4606 18.3332C14.4107 18.5778 14.6403 18.7869 14.8792 18.7144L16.422 18.2456C16.6611 18.173 16.891 18.3828 16.8404 18.6275L15.661 24.3357C15.5872 24.6928 16.0621 24.8875 16.2602 24.5814L16.3925 24.3769L23.7032 9.78717C23.8256 9.54288 23.6145 9.26434 23.3462 9.31611L20.7751 9.81234C20.5334 9.85892 20.3279 9.63391 20.3961 9.39752L21.0026 7.29478L28.0297 6.01398C28.5779 5.91407 28.9949 6.49745 28.723 6.98379L16.5995 28.6627C16.3492 29.1103 15.7061 29.1129 15.452 28.6675L3.08816 6.98588C2.81137 6.5005 3.22642 5.91256 3.77646 6.01087L12.3202 7.53801Z" fill="black"/>
</svg>
